# xmcd CD database file
#
# Track frame offsets:
#	150
#	17566
#	29338
#	39163
#	50058
#	61816
#	77073
#	88783
#	104713
#	118091
#	132318
#	146456
#	158901
#	171941
#	183205
#	197561
#	209388
#
# Disc length: 2938 seconds
#
# Revision: 0
# Processed by: cddbd v1.4PL0 Copyright (c) Steve Scherf et al.
# Submitted via: CDex 1.50
#
DISCID=e90b7811
DTITLE=Kenny Rogers - The Very Best Of - CD2
DYEAR=1999
DGENRE=Country
TTITLE0=SomeThings Burning
TTITLE1=What Am I Gonna Do
TTITLE2=Once Again She's All Alone
TTITLE3=Trying Just As Hard
TTITLE4=Me and Bobby McGee
TTITLE5=For the Good Times
TTITLE6=Girl get a hold Of yourseilf
TTITLE7=I Found a Reason
TTITLE8=It's Gonna Be Better
TTITLE9=Loser
TTITLE10=Sunshine
TTITLE11=Shadow inThe Corner of Your mind
TTITLE12=Run Thru Your Mind
TTITLE13=Hurry up  Love
TTITLE14=It's Raining in My Mind
TTITLE15=I Just Wanna Give My Love to You
TTITLE16=Always Leaving, Always Gone
EXTD=YEAR: 1999
EXTT0=
EXTT1=
EXTT2=
EXTT3=
EXTT4=
EXTT5=
EXTT6=
EXTT7=
EXTT8=
EXTT9=
EXTT10=
EXTT11=
EXTT12=
EXTT13=
EXTT14=
EXTT15=
EXTT16=
PLAYORDER=
